# xmcd
#
# Track frame offsets: 
#        150
#        10052
#        21092
#        22514
#        35834
#        36614
#        47870
#        60878
#        61846
#        78777
#        79996
#        93340
#        107604
#
# Disc length: 1617 seconds
#
# Revision: 0
# Processed by: cddbd v1.5.2PL0 Copyright (c) Steve Scherf et al.
# Submitted via: ExactAudioCopyFreeDBPlugin 1.0
#
DISCID=91064f0d
DTITLE=Po' Ramblin' Boys - Live and in Pointers
DYEAR=1900
DGENRE=Bluegrass
TTITLE0=Brown Hill
TTITLE1=Clinch Mountain Backstep
TTITLE2=Dooley Intro
TTITLE3=Dooley
TTITLE4=Chattanooga Dog Intro
TTITLE5=Chattanooga Dog
TTITLE6=Rollin' In My Sweet Baby's Arms
TTITLE7=Mountain Dew Intro
TTITLE8=Mountain Dew
TTITLE9=Josh Intro
TTITLE10=Salty Dog Blues
TTITLE11=Man of Constant Sorrow
TTITLE12=You Can Keep Your Nine Pound Hammer
EXTD=
EXTT0=
EXTT1=
EXTT2=
EXTT3=
EXTT4=
EXTT5=
EXTT6=
EXTT7=
EXTT8=
EXTT9=
EXTT10=
EXTT11=
EXTT12=
PLAYORDER=
